<?xml version="1.0" encoding="iso-8859-1"?>
<!-- Uploaded to: SVG Repo, www.svgrepo.com, Transformed by: SVG Repo Mixer Tools -->
<!DOCTYPE svg PUBLIC "-//W3C//DTD SVG 1.1//EN" "http://www.w3.org/Graphics/SVG/1.1/DTD/svg11.dtd">
<svg fill="#000000" height="800px" width="800px" version="1.1" id="Capa_1" xmlns="http://www.w3.org/2000/svg" xmlns:xlink="http://www.w3.org/1999/xlink" 
	 viewBox="0 0 488.391 488.391" xml:space="preserve">
<g>
	<path d="M11.5,168.981h44.188v153.947c0,6.352,5.148,11.5,11.5,11.5h86.805c6.352,0,11.5-5.148,11.5-11.5V168.981h44.186
		c4.434,0,8.473-2.549,10.381-6.551c1.907-4.001,1.346-8.744-1.445-12.188L119.528,27.943c-2.184-2.695-5.467-4.261-8.936-4.261
		c-3.468,0-6.752,1.565-8.936,4.261L2.565,150.242c-2.791,3.444-3.352,8.186-1.445,12.188C3.027,166.432,7.067,168.981,11.5,168.981
		z M110.593,53.45l74.968,92.531h-31.567c-6.351,0-11.5,5.148-11.5,11.5v153.947H78.689V157.481c0-6.352-5.148-11.5-11.5-11.5
		H35.619L110.593,53.45z"/>
	<path d="M278.713,168.981h44.189v153.947c0,6.352,5.148,11.5,11.5,11.5h86.805c6.352,0,11.5-5.148,11.5-11.5V168.981h44.185
		c4.434,0,8.472-2.549,10.38-6.551c1.908-4.001,1.347-8.744-1.444-12.188L386.741,27.943c-2.184-2.695-5.467-4.261-8.936-4.261
		c-3.468,0-6.752,1.565-8.936,4.261l-99.093,122.299c-2.791,3.444-3.352,8.186-1.445,12.188
		C270.24,166.432,274.279,168.981,278.713,168.981z M377.806,53.45l74.967,92.531h-31.566c-6.352,0-11.5,5.148-11.5,11.5v153.947
		h-63.805V157.481c0-6.352-5.148-11.5-11.5-11.5h-31.569L377.806,53.45z"/>
	<path d="M476.891,364.715H11.5c-6.352,0-11.5,5.148-11.5,11.5v76.993c0,6.351,5.148,11.5,11.5,11.5h465.391
		c6.352,0,11.5-5.149,11.5-11.5v-76.993C488.391,369.864,483.242,364.715,476.891,364.715z M465.391,441.709H23v-53.993h442.391
		V441.709z"/>
</g>
</svg>